<svg width="25.000000" height="27.335388" viewBox="0 0 25 27.3354" fill="none" xmlns="http://www.w3.org/2000/svg" xmlns:xlink="http://www.w3.org/1999/xlink">
	<desc>
			Created with Pixso.
	</desc>
	<defs/>
	<path id="Polygon 1" d="M0 5.00745L0 22.3279C0 26.1769 4.16699 28.5826 7.5 26.6581L22.5 17.9978C25.8335 16.0733 25.8335 11.262 22.5 9.33752L7.5 0.677307C4.16699 -1.24719 0 1.15845 0 5.00745Z" fill="#4ABCC1" fill-opacity="1.000000" fill-rule="evenodd"/>
	<path id="Polygon 1" d="M0 22.3279C0 26.1769 4.16699 28.5826 7.5 26.6581L22.5 17.9978C25.8335 16.0733 25.8335 11.262 22.5 9.33752L7.5 0.677307C4.16699 -1.24719 0 1.15845 0 5.00745L0 22.3279ZM2 22.3279C2 24.6373 4.5 26.0807 6.5 24.926L21.5 16.2657C23.5 15.111 23.5 12.2243 21.5 11.0696L6.5 2.40936C4.5 1.25464 2 2.698 2 5.00745L2 22.3279Z" fill="#FFFFFF" fill-opacity="1.000000" fill-rule="evenodd"/>
</svg>
